<svg width="1723" height="290" viewBox="0 0 1723 290" fill="none" xmlns="http://www.w3.org/2000/svg">
<rect width="1723" height="290" fill="white"/>
<path d="M660.061 111.061C660.646 110.475 660.646 109.525 660.061 108.939L650.515 99.3934C649.929 98.8076 648.979 98.8076 648.393 99.3934C647.808 99.9792 647.808 100.929 648.393 101.515L656.879 110L648.393 118.485C647.808 119.071 647.808 120.021 648.393 120.607C648.979 121.192 649.929 121.192 650.515 120.607L660.061 111.061ZM439 111.5H659V108.5H439V111.5Z" fill="black"/>
<path d="M1318.06 111.061C1318.65 110.475 1318.65 109.525 1318.06 108.939L1308.51 99.3934C1307.93 98.8076 1306.98 98.8076 1306.39 99.3934C1305.81 99.9792 1305.81 100.929 1306.39 101.515L1314.88 110L1306.39 118.485C1305.81 119.071 1305.81 120.021 1306.39 120.607C1306.98 121.192 1307.93 121.192 1308.51 120.607L1318.06 111.061ZM1097 111.5H1317V108.5H1097V111.5Z" fill="black"/>
</svg>
